<svg xmlns="http://www.w3.org/2000/svg" fill="none" viewBox="-0.75 -0.75 16 16" stroke="currentColor" aria-hidden="true" id="Squares-2x2--Streamline-Heroicons-Outline" height="16" width="16">
  <desc>
    Squares 2x2 Streamline Icon: https://streamlinehq.com
  </desc>
  <path stroke-linecap="round" stroke-linejoin="round" d="M2.265625 3.625A1.359375 1.359375 0 0 1 3.625 2.265625h1.359375A1.359375 1.359375 0 0 1 6.34375 3.625v1.359375a1.359375 1.359375 0 0 1 -1.359375 1.359375H3.625a1.359375 1.359375 0 0 1 -1.359375 -1.359375V3.625Zm0 5.890625A1.359375 1.359375 0 0 1 3.625 8.15625h1.359375a1.359375 1.359375 0 0 1 1.359375 1.359375V10.875a1.359375 1.359375 0 0 1 -1.359375 1.359375H3.625A1.359375 1.359375 0 0 1 2.265625 10.875v-1.359375ZM8.15625 3.625a1.359375 1.359375 0 0 1 1.359375 -1.359375H10.875A1.359375 1.359375 0 0 1 12.234375 3.625v1.359375A1.359375 1.359375 0 0 1 10.875 6.34375h-1.359375a1.359375 1.359375 0 0 1 -1.359375 -1.359375V3.625Zm0 5.890625a1.359375 1.359375 0 0 1 1.359375 -1.359375H10.875a1.359375 1.359375 0 0 1 1.359375 1.359375V10.875A1.359375 1.359375 0 0 1 10.875 12.234375h-1.359375A1.359375 1.359375 0 0 1 8.15625 10.875v-1.359375Z" stroke-width="1.5"></path>
</svg>